<mxfile
  host="Electron" 
  agent="Mozilla/5.0 (Macintosh; Intel Mac OS X 10_15_7) AppleWebKit/537.36 (KHTML, like Gecko) draw.io/25.0.2 Chrome/128.0.6613.186 Electron/32.2.5 Safari/537.36" 
  version="25.0.2"
  >
  <diagram
    name="-"
    >
    <mxGraphModel
      grid="1" 
      gridSize="10" 
      guides="1" 
      tooltips="1" 
      connect="1" 
      arrows="1" 
      fold="1" 
      page="1" 
      pageScale="1" 
      pageWidth="1" 
      pageHeight="1" 
      math="0" 
      shadow="0"
      >
      <root>
        <mxCell
          id="page"
          />
        <mxCell
          id="root" 
          parent="page"
          />
        <mxCell
          style="verticalAlign=top;aspect=fixed;align=center;spacingLeft=5;spacingRight=5;spacingBottom=5;strokeColor=none;" 
          id="shape_" 
          parent="root" 
          value=" " 
          vertex="1"
          >
          <mxGeometry
            as="geometry" 
            width="120" 
            height="120" 
            x="0" 
            y="0"
            />
          </mxCell>
        <mxCell
          style="rounded=1;whiteSpace=wrap;verticalAlign=top;align=center;editableCssRules=.*;html=1;shape=image;verticalLabelPosition=bottom;labelBackgroundColor=#ffffff;aspect=fixed;imageAspect=0;image=data:image/svg+xml,PHN2ZyB4bWxucz0iaHR0cDovL3d3dy53My5vcmcvMjAwMC9zdmciIHhtbG5zOnY9Imh0dHBzOi8vdmVjdGEuaW8vbmFubyIgd2lkdGg9IjIwIiBoZWlnaHQ9IjIwIiB2aWV3Qm94PSIwIDAgMjAgMjAiPiYjeGE7CTxzdHlsZSB0eXBlPSJ0ZXh0L2NzcyI+JiN4YTsJLnN0MHtmaWxsOiM0Mjg1ZjQ7fSYjeGE7CTwvc3R5bGU+JiN4YTsJPHBhdGggY2xhc3M9InN0MCIgZD0iTTE3Ljc4IDBIMi4yMkEyLjIzIDIuMjMgMCAwIDAgMCAyLjIydjE1LjU2QTIuMjMgMi4yMyAwIDAgMCAyLjIyIDIwaDE1LjU2QTIuMjMgMi4yMyAwIDAgMCAyMCAxNy43OFYyLjIyQTIuMjMgMi4yMyAwIDAgMCAxNy43OCAwek0xLjUgNy41di0zQTEuNTQgMS41NCAwIDAgMSAzIDNoMy41djEuNUgzdjNoMy41VjlIM2ExLjU0IDEuNTQgMCAwIDEtMS41LTEuNXpNNyAxN0g1LjVsLTEuNzUtNmgxLjVsMSAzLjQzIDEtMy40M2gxLjV6bS41LTkuNVYzSDl2NC41aDJWM2gxLjV2NC41QTEuNTQgMS41NCAwIDAgMSAxMSA5SDlhMS41NCAxLjU0IDAgMCAxLTEuNS0xLjV6bTguNzUgOS41aC0xLjV2LTQuNWgtMVYxN2gtMS41di00LjVoLTFWMTdoLTEuNXYtNC41YTEuNTQgMS41NCAwIDAgMSAxLjUtMS41aDFhMS40NCAxLjQ0IDAgMCAxIC43NS4yMiAxLjQ0IDEuNDQgMCAwIDEgLjc1LS4yMmgxYTEuNTQgMS41NCAwIDAgMSAxLjUgMS41ek0xOC41IDQuNUgxNXYuNzVoMmExLjU0IDEuNTQgMCAwIDEgMS41IDEuNXYuNzVBMS41NCAxLjU0IDAgMCAxIDE3IDloLTMuNVY3LjVIMTd2LS43NWgtMmExLjU0IDEuNTQgMCAwIDEtMS41LTEuNVY0LjVBMS41NCAxLjU0IDAgMCAxIDE1IDNoMy41eiIvPiYjeGE7PC9zdmc+;strokeColor=none;" 
          id="modifiers_custom_virtual_machine_" 
          parent="shape_" 
          value=" " 
          vertex="1"
          >
          <mxGeometry
            as="geometry" 
            width="60" 
            height="60" 
            x="30" 
            y="30"
            />
          </mxCell>
        </root>
      </mxGraphModel>
    </diagram>
  </mxfile>